<?xml version="1.0" encoding="UTF-8"?>
<svg width="360px" height="140px" viewBox="0 0 360 140" version="1.1" xmlns="http://www.w3.org/2000/svg" xmlns:xlink="http://www.w3.org/1999/xlink">
    <!-- Generator: Sketch 49.1 (51147) - http://www.bohemiancoding.com/sketch -->
    <title>flourishes/large/car/where-compare-360x140 </title>
    <desc>Created with Sketch.</desc>
    <defs></defs>
    <g id="flourishes/large/car/where-compare-360x140-" stroke="none" stroke-width="1" fill="none" fill-rule="evenodd">
        <g id="Page-1" transform="translate(21.000000, 25.000000)">
            <path d="M43.9315,25.6664 C44.6255,23.8304 48.1195,24.1224 48.1175,26.9044 C48.1175,28.2914 47.0505,30.1294 43.9295,31.9924 C40.8105,30.0954 39.7435,28.2434 39.7435,26.8584 C39.7445,24.0924 43.2345,23.8124 43.9315,25.6664" id="Fill-1" fill="#70B344"></path>
            <path d="M31.6461,8.2435 C32.0811,7.0945 34.2721,7.2775 34.2701,9.0195 C34.2701,9.8895 33.6001,11.0405 31.6451,12.2085 C29.6901,11.0185 29.0211,9.8595 29.0211,8.9915 C29.0221,7.2585 31.2081,7.0835 31.6461,8.2435" id="Fill-3" fill="#CAD92A"></path>
            <path d="M34.2704,42.7396 C34.7054,41.5906 36.8964,41.7736 36.8944,43.5166 C36.8944,44.3856 36.2244,45.5376 34.2694,46.7046 C32.3144,45.5146 31.6454,44.3556 31.6454,43.4876 C31.6464,41.7546 33.8334,41.5796 34.2704,42.7396" id="Fill-5" fill="#CAD92A"></path>
            <path d="M61.0318,64.2015 C61.0318,65.1335 60.2758,65.8895 59.3438,65.8895 C58.4108,65.8895 57.6548,65.1335 57.6548,64.2015 C57.6548,63.2685 58.4108,62.5135 59.3438,62.5135 C60.2758,62.5135 61.0318,63.2685 61.0318,64.2015 Z" id="Stroke-7" stroke="#CCDB2A" stroke-width="1.6"></path>
            <path d="M246.6072,9.9769 C246.1722,8.8279 243.9812,9.0109 243.9832,10.7539 C243.9832,11.6229 244.6532,12.7749 246.6082,13.9419 C248.5632,12.7519 249.2322,11.5929 249.2322,10.7249 C249.2312,8.9919 247.0452,8.8169 246.6072,9.9769" id="Fill-9" fill="#CAD92A"></path>
            <path d="M282.131,62.4672 C282.131,63.4002 281.375,64.1552 280.443,64.1552 C279.51,64.1552 278.754,63.4002 278.754,62.4672 C278.754,61.5352 279.51,60.7792 280.443,60.7792 C281.375,60.7792 282.131,61.5352 282.131,62.4672 Z" id="Stroke-11" stroke="#CCDB2A" stroke-width="1.6"></path>
            <polygon id="Fill-13" fill="#F1F3F4" points="211.9452 81.1547 212.1422 86.5967 214.7902 86.7867 214.3922 81.1697"></polygon>
            <polygon id="Fill-15" fill="#D3DADD" points="102.2915 48.1039 81.4825 48.1039 87.6145 82.0739 87.1775 83.1999 90.7035 83.4809 91.5015 80.9479 103.4175 80.9479"></polygon>
            <polygon id="Fill-17" fill="#B7C2C7" points="99.8131 48.2015 100.0271 80.4355 103.2481 80.2945 102.8331 48.1165"></polygon>
            <path d="M108.1151,8.9564 C108.1151,8.9564 106.9461,14.3304 105.0521,20.7074 C104.7861,21.6044 103.3791,22.5224 103.0851,23.4484 C102.8141,24.3004 103.6581,25.1574 103.3661,26.0134 C101.3701,31.8624 98.8981,37.5724 96.2611,40.0974 L91.1501,39.9914 L100.1761,25.1624 L105.9401,8.3204 L108.1151,8.9564 Z" id="Fill-19" fill="#70B544"></path>
            <path d="M100.3993,22.6761 C99.6053,23.4491 97.7653,22.9121 96.2903,21.4761 C94.8153,20.0391 94.2633,18.2471 95.0573,17.4741 C95.8513,16.6991 97.6913,17.2381 99.1663,18.6741 C100.6413,20.1111 101.1933,21.9031 100.3993,22.6761" id="Fill-21" fill="#70B544"></path>
            <path d="M100.3993,22.6761 C99.6053,23.4491 97.7653,22.9121 96.2903,21.4761 C94.8153,20.0391 94.2633,18.2471 95.0573,17.4741 C95.8513,16.6991 97.6913,17.2381 99.1663,18.6741 C100.6413,20.1111 101.1933,21.9031 100.3993,22.6761 Z" id="Stroke-23" stroke="#46616E" stroke-width="1.6" stroke-linecap="round" stroke-linejoin="round"></path>
            <path d="M102.7993,14.8841 C102.0053,15.6581 100.1653,15.1201 98.6903,13.6841 C97.2153,12.2471 96.6633,10.4551 97.4573,9.6821 C98.2513,8.9071 100.0913,9.4461 101.5663,10.8821 C103.0413,12.3191 103.5933,14.1111 102.7993,14.8841" id="Fill-25" fill="#70B544"></path>
            <path d="M102.7993,14.8841 C102.0053,15.6581 100.1653,15.1201 98.6903,13.6841 C97.2153,12.2471 96.6633,10.4551 97.4573,9.6821 C98.2513,8.9071 100.0913,9.4461 101.5663,10.8821 C103.0413,12.3191 103.5933,14.1111 102.7993,14.8841 Z" id="Stroke-27" stroke="#46616E" stroke-width="1.6" stroke-linecap="round" stroke-linejoin="round"></path>
            <path d="M106.7228,7.8724 C105.6508,8.1994 104.2768,6.8924 103.6538,4.9524 C103.0308,3.0134 103.3948,1.1774 104.4678,0.8504 C105.5398,0.5234 106.9138,1.8304 107.5358,3.7694 C108.1588,5.7094 107.7948,7.5464 106.7228,7.8724" id="Fill-29" fill="#70B544"></path>
            <path d="M106.7228,7.8724 C105.6508,8.1994 104.2768,6.8924 103.6538,4.9524 C103.0308,3.0134 103.3948,1.1774 104.4678,0.8504 C105.5398,0.5234 106.9138,1.8304 107.5358,3.7694 C108.1588,5.7094 107.7948,7.5464 106.7228,7.8724 Z" id="Stroke-31" stroke="#46616E" stroke-width="1.6" stroke-linecap="round" stroke-linejoin="round"></path>
            <path d="M114.5255,12.847 C114.8055,13.814 113.4035,15.044 111.3945,15.595 C109.3855,16.147 107.5305,15.81 107.2505,14.843 C106.9705,13.877 108.3725,12.647 110.3815,12.095 C112.3905,11.544 114.2455,11.88 114.5255,12.847" id="Fill-33" fill="#70B544"></path>
            <path d="M114.5255,12.847 C114.8055,13.814 113.4035,15.044 111.3945,15.595 C109.3855,16.147 107.5305,15.81 107.2505,14.843 C106.9705,13.877 108.3725,12.647 110.3815,12.095 C112.3905,11.544 114.2455,11.88 114.5255,12.847 Z" id="Stroke-35" stroke="#46616E" stroke-width="1.6" stroke-linecap="round" stroke-linejoin="round"></path>
            <path d="M113.4724,4.8822 C114.0554,5.7112 113.1314,7.3142 111.4094,8.4622 C109.6874,9.6112 107.8194,9.8712 107.2364,9.0422 C106.6544,8.2142 107.5774,6.6112 109.2994,5.4622 C111.0214,4.3142 112.8894,4.0542 113.4724,4.8822" id="Fill-37" fill="#70B544"></path>
            <path d="M113.4724,4.8822 C114.0554,5.7112 113.1314,7.3142 111.4094,8.4622 C109.6874,9.6112 107.8194,9.8712 107.2364,9.0422 C106.6544,8.2142 107.5774,6.6112 109.2994,5.4622 C111.0214,4.3142 112.8894,4.0542 113.4724,4.8822 Z" id="Stroke-39" stroke="#46616E" stroke-width="1.6" stroke-linecap="round" stroke-linejoin="round"></path>
            <path d="M105.6809,8.2699 C103.8729,15.6659 101.1469,22.8459 97.5919,29.6139 C95.7009,33.2119 93.5759,36.6949 91.2299,40.0309" id="Stroke-41" stroke="#46616E" stroke-width="1.6" stroke-linecap="round" stroke-linejoin="round"></path>
            <path d="M105.7864,20.0609 C105.9974,19.3049 106.1944,18.5459 106.3754,17.7839 C106.9914,15.1999 106.9554,12.1939 107.8254,9.7229" id="Stroke-43" stroke="#46616E" stroke-width="1.6" stroke-linecap="round" stroke-linejoin="round"></path>
            <path d="M95.966,40.0804 C98.646,36.4804 100.915,32.5934 102.735,28.5164" id="Stroke-45" stroke="#46616E" stroke-width="1.6" stroke-linecap="round" stroke-linejoin="round"></path>
            <path d="M77.7,11.642 C77.7,11.642 84.045,40.812 91.532,47.98 L97.497,47.857 L86.964,30.553 L80.238,10.901 L77.7,11.642 Z" id="Fill-47" fill="#70B544"></path>
            <path d="M77.5968,40.389 C77.3468,41.755 79.2548,43.23 81.8588,43.682 C84.4638,44.135 86.7778,43.395 87.0278,42.029 C87.2778,40.663 85.3698,39.189 82.7658,38.737 C80.1608,38.284 77.8468,39.024 77.5968,40.389" id="Fill-49" fill="#70B544"></path>
            <path d="M77.5968,40.389 C77.3468,41.755 79.2548,43.23 81.8588,43.682 C84.4638,44.135 86.7778,43.395 87.0278,42.029 C87.2778,40.663 85.3698,39.189 82.7658,38.737 C80.1608,38.284 77.8468,39.024 77.5968,40.389 Z" id="Stroke-51" stroke="#46616E" stroke-width="1.6" stroke-linecap="round" stroke-linejoin="round"></path>
            <path d="M89.9425,35.2601 C90.6935,36.3071 92.9195,36.0531 94.9145,34.6941 C96.9095,33.3351 97.9175,31.3851 97.1665,30.3391 C96.4145,29.2931 94.1885,29.5471 92.1935,30.9061 C90.1995,32.2651 89.1915,34.2141 89.9425,35.2601" id="Fill-53" fill="#70B544"></path>
            <path d="M89.9425,35.2601 C90.6935,36.3071 92.9195,36.0531 94.9145,34.6941 C96.9095,33.3351 97.9175,31.3851 97.1665,30.3391 C96.4145,29.2931 94.1885,29.5471 92.1935,30.9061 C90.1995,32.2651 89.1915,34.2141 89.9425,35.2601 Z" id="Stroke-55" stroke="#46616E" stroke-width="1.6" stroke-linecap="round" stroke-linejoin="round"></path>
            <path d="M86.7035,27.6527 C87.6305,28.5547 89.7775,27.9277 91.4985,26.2517 C93.2195,24.5747 93.8635,22.4837 92.9365,21.5817 C92.0105,20.6777 89.8635,21.3057 88.1415,22.9827 C86.4205,24.6587 85.7765,26.7497 86.7035,27.6527" id="Fill-57" fill="#70B544"></path>
            <path d="M86.7035,27.6527 C87.6305,28.5547 89.7775,27.9277 91.4985,26.2517 C93.2195,24.5747 93.8635,22.4837 92.9365,21.5817 C92.0105,20.6777 89.8635,21.3057 88.1415,22.9827 C86.4205,24.6587 85.7765,26.7497 86.7035,27.6527 Z" id="Stroke-59" stroke="#46616E" stroke-width="1.6" stroke-linecap="round" stroke-linejoin="round"></path>
            <path d="M83.903,18.5599 C84.83,19.4629 86.977,18.8349 88.698,17.1599 C90.419,15.4829 91.063,13.3919 90.136,12.4889 C89.21,11.5859 87.063,12.2129 85.341,13.8899 C83.62,15.5669 82.976,17.6579 83.903,18.5599" id="Fill-61" fill="#70B544"></path>
            <path d="M83.903,18.5599 C84.83,19.4629 86.977,18.8349 88.698,17.1599 C90.419,15.4829 91.063,13.3919 90.136,12.4889 C89.21,11.5859 87.063,12.2129 85.341,13.8899 C83.62,15.5669 82.976,17.6579 83.903,18.5599 Z" id="Stroke-63" stroke="#46616E" stroke-width="1.6" stroke-linecap="round" stroke-linejoin="round"></path>
            <path d="M79.3247,10.3783 C80.5757,10.7593 82.1787,9.2333 82.9057,6.9713 C83.6327,4.7083 83.2077,2.5653 81.9567,2.1843 C80.7057,1.8023 79.1017,3.3273 78.3757,5.5903 C77.6487,7.8543 78.0737,9.9963 79.3247,10.3783" id="Fill-65" fill="#70B544"></path>
            <path d="M79.3247,10.3783 C80.5757,10.7593 82.1787,9.2333 82.9057,6.9713 C83.6327,4.7083 83.2077,2.5653 81.9567,2.1843 C80.7057,1.8023 79.1017,3.3273 78.3757,5.5903 C77.6487,7.8543 78.0737,9.9963 79.3247,10.3783 Z" id="Stroke-67" stroke="#46616E" stroke-width="1.6" stroke-linecap="round" stroke-linejoin="round"></path>
            <path d="M72.8596,32.5111 C72.7946,33.8971 74.8846,35.1151 77.5276,35.2331 C80.1706,35.3501 82.3646,34.3221 82.4296,32.9351 C82.4946,31.5491 80.4046,30.3301 77.7616,30.2131 C75.1196,30.0961 72.9246,31.1251 72.8596,32.5111" id="Fill-69" fill="#70B544"></path>
            <path d="M72.8596,32.5111 C72.7946,33.8971 74.8846,35.1151 77.5276,35.2331 C80.1706,35.3501 82.3646,34.3221 82.4296,32.9351 C82.4946,31.5491 80.4046,30.3301 77.7616,30.2131 C75.1196,30.0961 72.9246,31.1251 72.8596,32.5111 Z" id="Stroke-71" stroke="#46616E" stroke-width="1.6" stroke-linecap="round" stroke-linejoin="round"></path>
            <path d="M71.5648,24.0043 C71.5098,25.1743 73.2748,26.2033 75.5068,26.3023 C77.7388,26.4013 79.5928,25.5323 79.6478,24.3613 C79.7018,23.1923 77.9368,22.1623 75.7048,22.0643 C73.4728,21.9643 71.6198,22.8333 71.5648,24.0043" id="Fill-73" fill="#70B544"></path>
            <path d="M71.5648,24.0043 C71.5098,25.1743 73.2748,26.2033 75.5068,26.3023 C77.7388,26.4013 79.5928,25.5323 79.6478,24.3613 C79.7018,23.1923 77.9368,22.1623 75.7048,22.0643 C73.4728,21.9643 71.6198,22.8333 71.5648,24.0043 Z" id="Stroke-75" stroke="#46616E" stroke-width="1.6" stroke-linecap="round" stroke-linejoin="round"></path>
            <path d="M70.2198,16.183 C69.8938,17.311 71.5298,18.746 73.8738,19.39 C76.2178,20.033 78.3828,19.64 78.7088,18.512 C79.0348,17.384 77.3988,15.949 75.0548,15.305 C72.7108,14.662 70.5458,15.055 70.2198,16.183" id="Fill-77" fill="#70B544"></path>
            <path d="M70.2198,16.183 C69.8938,17.311 71.5298,18.746 73.8738,19.39 C76.2178,20.033 78.3828,19.64 78.7088,18.512 C79.0348,17.384 77.3988,15.949 75.0548,15.305 C72.7108,14.662 70.5458,15.055 70.2198,16.183 Z" id="Stroke-79" stroke="#46616E" stroke-width="1.6" stroke-linecap="round" stroke-linejoin="round"></path>
            <path d="M71.4485,6.889 C70.7685,7.856 71.8465,9.726 73.8555,11.067 C75.8645,12.407 78.0445,12.71 78.7245,11.743 C79.4045,10.777 78.3275,8.907 76.3175,7.566 C74.3085,6.225 72.1285,5.922 71.4485,6.889" id="Fill-81" fill="#70B544"></path>
            <path d="M71.4485,6.889 C70.7685,7.856 71.8465,9.726 73.8555,11.067 C75.8645,12.407 78.0445,12.71 78.7245,11.743 C79.4045,10.777 78.3275,8.907 76.3175,7.566 C74.3085,6.225 72.1285,5.922 71.4485,6.889 Z" id="Stroke-83" stroke="#46616E" stroke-width="1.6" stroke-linecap="round" stroke-linejoin="round"></path>
            <path d="M80.5404,10.8412 C83.7714,24.0612 89.5194,36.6932 97.4034,47.9032" id="Stroke-85" stroke="#46616E" stroke-width="1.6" stroke-linecap="round" stroke-linejoin="round"></path>
            <path d="M91.8767,47.9613 C88.0007,42.7553 84.8617,37.0323 82.5437,31.0133 C81.4037,28.0533 80.4627,25.0223 79.7297,21.9423 C79.0117,18.9283 79.0537,15.4203 78.0377,12.5373" id="Stroke-87" stroke="#46616E" stroke-width="1.6" stroke-linecap="round" stroke-linejoin="round"></path>
            <polyline id="Stroke-89" stroke="#46616E" stroke-width="1.6" stroke-linecap="round" stroke-linejoin="round" points="102.8216 48.1039 80.5396 48.1039 87.0806 83.7279 91.0296 83.7279"></polyline>
            <path d="M209.1048,88.5531 L229.5618,88.5531 L232.7708,56.4531 L205.8948,56.4531 L209.1048,88.5531 Z M230.2868,90.1561 L208.3798,90.1561 C207.9678,90.1561 207.6228,89.8441 207.5818,89.4341 L204.2118,55.7321 C204.1898,55.5061 204.2628,55.2821 204.4148,55.1141 C204.5668,54.9461 204.7828,54.8501 205.0098,54.8501 L233.6568,54.8501 C233.8828,54.8501 234.0988,54.9461 234.2508,55.1141 C234.4028,55.2821 234.4768,55.5061 234.4548,55.7321 L231.0848,89.4341 C231.0438,89.8441 230.6988,90.1561 230.2868,90.1561 Z" id="Fill-91" fill="#46616E"></path>
            <path d="M231.9702,83.5179 C231.7012,83.5179 231.4302,83.5009 231.1572,83.4669 C230.7182,83.4119 230.4072,83.0099 230.4632,82.5719 C230.5182,82.1309 230.9282,81.8249 231.3582,81.8759 C234.6042,82.2849 237.6572,79.3969 238.1582,75.4339 L238.7462,70.7779 C239.2462,66.8149 237.0102,63.2569 233.7612,62.8469 C233.3222,62.7909 233.0112,62.3909 233.0662,61.9519 C233.1222,61.5119 233.5312,61.2029 233.9622,61.2569 C238.0882,61.7779 240.9472,66.1389 240.3362,70.9789 L239.7492,75.6349 C239.1782,80.1549 235.7782,83.5179 231.9702,83.5179" id="Fill-93" fill="#46616E"></path>
            <path d="M219.5053,68.8695 C218.3383,65.7855 212.4683,66.2765 212.4693,70.9515 C212.4693,73.2805 214.2643,76.3695 219.5073,79.4985 C224.7493,76.3115 226.5423,73.2025 226.5423,70.8735 C226.5413,66.2255 220.6773,65.7545 219.5053,68.8695" id="Fill-95" fill="#70B544"></path>
            <path d="M231.7008,80.8968 C231.5368,80.8968 231.3718,80.8858 231.2078,80.8658 C230.7688,80.8098 230.4578,80.4098 230.5128,79.9698 C230.5688,79.5308 230.9778,79.2208 231.4088,79.2758 C232.2658,79.3838 233.1528,78.9968 233.9088,78.1858 C234.7308,77.3028 235.2798,76.0538 235.4548,74.6678 L235.8848,71.2658 C236.0598,69.8798 235.8388,68.5338 235.2618,67.4748 C234.7308,66.5008 233.9668,65.9068 233.1108,65.7978 C232.6718,65.7428 232.3608,65.3418 232.4158,64.9028 C232.4708,64.4628 232.8788,64.1548 233.3118,64.2078 C234.6928,64.3818 235.8848,65.2698 236.6688,66.7078 C237.4048,68.0598 237.6918,69.7508 237.4748,71.4668 L237.0448,74.8698 C236.8288,76.5858 236.1308,78.1528 235.0808,79.2788 C234.0968,80.3338 232.9138,80.8968 231.7008,80.8968" id="Fill-97" fill="#46616E"></path>
            <path d="M220.834,27.5511 C221.227,30.7231 221.36,33.6091 220.101,36.6971 C218.231,41.2841 213.532,47.5751 219.623,51.4781" id="Stroke-99" stroke="#D3DADD" stroke-width="1.2" stroke-linecap="round"></path>
            <path d="M216.6004,30.9193 C216.6274,32.4303 216.4884,33.9123 216.0414,35.4293 C215.9174,35.8493 215.7704,36.2713 215.5964,36.6963 C213.7264,41.2843 209.0274,47.5753 215.1184,51.4783" id="Stroke-101" stroke="#D3DADD" stroke-width="1.2" stroke-linecap="round"></path>
            <path d="M224.6062,36.6966 C222.7362,41.2846 218.0372,47.5756 224.1272,51.4776" id="Stroke-103" stroke="#D3DADD" stroke-width="1.2" stroke-linecap="round"></path>
            <path d="M176.9062,61.8871 L123.1702,61.8871 C120.0542,61.8871 117.5042,59.3371 117.5042,56.2201 L117.5042,53.9541 C117.5042,50.8371 120.0542,48.2871 123.1702,48.2871 L176.9062,48.2871 C180.0232,48.2871 182.5732,50.8371 182.5732,53.9541 L182.5732,56.2201 C182.5732,59.3371 180.0232,61.8871 176.9062,61.8871" id="Fill-105" fill="#F1F3F4"></path>
            <path d="M174.4641,53.1507 C173.6271,53.9877 173.6271,55.3437 174.4641,56.1807 C175.3011,57.0167 176.6571,57.0167 177.4941,56.1807 C178.3311,55.3437 178.3311,53.9877 177.4941,53.1507 C176.6571,52.3137 175.3011,52.3137 174.4641,53.1507 Z" id="Stroke-107" stroke="#46616E" stroke-width="1.2" stroke-linecap="round" stroke-linejoin="round"></path>
            <path d="M174.3916,56.2533 L172.4086,58.2353" id="Stroke-109" stroke="#46616E" stroke-width="1.2" stroke-linecap="round" stroke-linejoin="round"></path>
            <path d="M132.1355,67.2455 L167.9855,67.2455" id="Stroke-111" stroke="#F1F3F4"></path>
            <path d="M102.8033,80.3793 L102.8033,24.4763 C102.8033,21.8543 104.9493,19.7083 107.5713,19.7083 L194.6883,19.7083 C197.3113,19.7083 199.4563,21.8543 199.4563,24.4763 L199.4563,80.3793" id="Stroke-113" stroke="#46616E" stroke-width="1.6" stroke-linecap="round" stroke-linejoin="round"></path>
            <path d="M102.8033,80.3793 L102.8033,24.4763 C102.8033,21.8543 104.9493,19.7083 107.5713,19.7083 L194.6883,19.7083 C197.3113,19.7083 199.4563,21.8543 199.4563,24.4763 L199.4563,80.3793" id="Stroke-115" stroke="#46616E" stroke-width="1.6" stroke-linecap="round" stroke-linejoin="round"></path>
            <path d="M106.7338,75.6048 L106.7338,26.1398 C106.7338,25.1468 107.5458,24.3348 108.5388,24.3348 L193.7218,24.3348 C194.7138,24.3348 195.5258,25.1468 195.5258,26.1398 L195.5258,75.6048 C195.5258,76.5968 194.7138,77.4098 193.7218,77.4098 L108.5388,77.4098 C107.5458,77.4098 106.7338,76.5968 106.7338,75.6048 Z" id="Stroke-117" stroke="#46616E" stroke-width="1.2" stroke-linecap="round" stroke-linejoin="round"></path>
            <path d="M206.4667,81.0404 L163.9987,81.0404 L163.9987,82.9574 C163.9987,83.4084 163.6287,83.7784 163.1777,83.7784 L139.9037,83.7784 C139.4517,83.7784 139.0827,83.4084 139.0827,82.9574 L139.0827,81.0404 L91.8507,81.0404 C91.3987,81.0404 91.0297,81.4094 91.0297,81.8614 L91.0297,86.5164 C91.0297,86.9684 91.3987,87.3384 91.8507,87.3384 L207.5947,87.3384" id="Stroke-119" stroke="#46616E" stroke-width="1.6" stroke-linecap="round" stroke-linejoin="round"></path>
            <path d="M153.6201,34.6439 C153.5691,34.6439 153.5221,34.6569 153.4711,34.6589 C152.9261,33.1939 151.5271,32.1459 149.8731,32.1459 C148.2181,32.1459 146.8201,33.1939 146.2751,34.6589 C146.2241,34.6569 146.1771,34.6439 146.1261,34.6439 C143.9981,34.6439 142.2741,36.3679 142.2741,38.4949 C142.2741,40.6219 143.9981,42.3459 146.1261,42.3459 C146.4161,42.3459 146.6971,42.3079 146.9691,42.2479 C147.6751,43.0659 148.7071,43.5949 149.8731,43.5949 C151.0391,43.5949 152.0711,43.0659 152.7771,42.2479 C153.0491,42.3079 153.3301,42.3459 153.6201,42.3459 C155.7471,42.3459 157.4711,40.6219 157.4711,38.4949 C157.4711,36.3679 155.7471,34.6439 153.6201,34.6439 Z" id="Stroke-121" stroke="#46616E" stroke-width="1.2" stroke-linecap="round" stroke-linejoin="round"></path>
            <path d="M93.5717,42.1625 C94.2287,43.7245 97.1607,44.0505 100.1197,42.8895 C103.0797,41.7275 104.9457,39.5195 104.2887,37.9585 C103.6307,36.3955 100.6987,36.0705 97.7397,37.2315 C94.7807,38.3925 92.9147,40.6005 93.5717,42.1625" id="Fill-123" fill="#70B544"></path>
            <path d="M93.5717,42.1625 C94.2287,43.7245 97.1607,44.0505 100.1197,42.8895 C103.0797,41.7275 104.9457,39.5195 104.2887,37.9585 C103.6307,36.3955 100.6987,36.0705 97.7397,37.2315 C94.7807,38.3925 92.9147,40.6005 93.5717,42.1625 Z" id="Stroke-125" stroke="#46616E" stroke-width="1.6" stroke-linecap="round" stroke-linejoin="round"></path>
            <path d="M0.8,77.5687 L84.46,77.5687" id="Stroke-127" stroke="#46616E" stroke-width="1.6" stroke-linecap="round" stroke-linejoin="round"></path>
            <path d="M239.4989,77.5687 L317.4669,77.5687" id="Stroke-129" stroke="#46616E" stroke-width="1.6" stroke-linecap="round" stroke-linejoin="round"></path>
        </g>
    </g>
</svg>