<svg xmlns="http://www.w3.org/2000/svg" width="51.16" height="14" viewBox="0 0 51.16 14"><defs><style>.a{fill:rgba(236,236,236,0);}.b{fill:#364045;}.c{fill:#4050c6;}</style></defs><g transform="translate(-468 -421)"><rect class="a" width="51.16" height="14" transform="translate(468 421)"/><g transform="translate(332.524 -351.965)"><g transform="translate(136.476 773.148)"><g transform="translate(0)"><path class="b" d="M141.418,782.237l-3.245-4.208h-1.7v9.528h1.864v-6.263l3.014,3.731h.1l3.041-3.758v6.291h1.864v-9.528h-1.7Z" transform="translate(-136.476 -776.74)"/><path class="b" d="M277.672,786H279.5V775.917l-1.832.55Z" transform="translate(-240.982 -775.186)"/><path class="b" d="M264.756,786h1.832V775.917l-1.832.55Z" transform="translate(-231.372 -775.186)"/><path class="b" d="M211.025,779.09l-.133-.035a4.619,4.619,0,0,0-1.129-.14,3.362,3.362,0,0,0-2.219.743,3.936,3.936,0,0,0-1.12,3.11,3.532,3.532,0,0,0,1.053,2.831,3.578,3.578,0,0,0,2.381.735,8.609,8.609,0,0,0,2.93-.577l.047-.018v-9.594l-1.81.493Zm0,5.522-.073.024a3.078,3.078,0,0,1-.842.138h-.061a1.654,1.654,0,0,1-1.024-.289,2.169,2.169,0,0,1-.66-1.82c0-1.354.648-2.162,1.733-2.162a2.524,2.524,0,0,1,.858.16l.069.025Z" transform="translate(-188.253 -775.355)"/><path class="b" d="M290.478,793.865h1.832v-7.441l-1.832.557Z" transform="translate(-250.408 -783.049)"/><path class="c" d="M289.285,774.441l1.314,1.334,1.314-1.314-1.314-1.314Z" transform="translate(-249.53 -773.148)"/></g><path class="b" d="M237.774,786.693a5.152,5.152,0,0,0-2.292.524v1.5h.014a5.172,5.172,0,0,1,2.194-.479,1.635,1.635,0,0,1,1.241.385,1.706,1.706,0,0,1,.243,1.105,5.594,5.594,0,0,0-1.233-.144c-2.089,0-3.239.906-3.239,2.331a2.365,2.365,0,0,0,2.531,2.3,3.583,3.583,0,0,0,2.08-.579v.4h1.757v-4.515C241.069,786.986,239.188,786.693,237.774,786.693Zm1.42,5.587a1.961,1.961,0,0,1-1.548.59.963.963,0,0,1-1.092-.975c0-.792.794-1.075,1.537-1.075a5.214,5.214,0,0,1,1.1.1Z" transform="translate(-209.184 -783.247)"/></g><path class="b" d="M304.214,786.693a5.152,5.152,0,0,0-2.292.524v1.5h.014a5.173,5.173,0,0,1,2.194-.479,1.636,1.636,0,0,1,1.241.385,1.708,1.708,0,0,1,.243,1.105,5.594,5.594,0,0,0-1.233-.144c-2.089,0-3.239.906-3.239,2.331a2.365,2.365,0,0,0,2.531,2.3,3.583,3.583,0,0,0,2.08-.579v.4h1.757v-4.515C307.509,786.986,305.628,786.693,304.214,786.693Zm1.419,5.587a1.961,1.961,0,0,1-1.547.59.963.963,0,0,1-1.092-.975c0-.792.794-1.075,1.537-1.075a5.214,5.214,0,0,1,1.1.1Z" transform="translate(-121.78 -10.099)"/><path class="b" d="M184.8,790.372a3.772,3.772,0,0,0-.947-2.857,3.065,3.065,0,0,0-2.154-.8,3.477,3.477,0,0,0-2.253.8,3.768,3.768,0,0,0-1.164,3c0,3.384,2.529,3.749,3.616,3.749a6.278,6.278,0,0,0,2.43-.559v-1.528a4.257,4.257,0,0,1-2.132.576,2.142,2.142,0,0,1-1.809-.908,1.883,1.883,0,0,1-.275-.707h4.662S184.8,790.687,184.8,790.372Zm-4.673-.539a1.738,1.738,0,0,1,.177-.787,1.539,1.539,0,0,1,1.392-.807,1.4,1.4,0,0,1,1.328.814,1.89,1.89,0,0,1,.143.781Z" transform="translate(-30.921 -10.118)"/></g></g></svg>