<svg xmlns="http://www.w3.org/2000/svg" width="125" height="34">
    <path fill="#FFF" fill-rule="evenodd" d="M60.85 18.576l-.417 1.906c-.368-.085-1.338-.413-2.822-.413-1.687 0-2.487.659-2.476 1.645.03 2.623 6.49 1.727 6.547 6.773.026 2.44-1.755 4.789-5.642 4.789-.867 0-3.058-.227-3.95-.616l.36-1.967c.439.172 1.683.527 3.087.527 2.211 0 2.957-1.188 2.943-2.208-.037-3.299-6.424-1.885-6.48-6.94C51.98 20.18 53.478 18 57.265 18c1.543 0 3.019.415 3.586.576zM43.748 21.14h-.51c-1.885 0-3.143 1.074-4.156 3.204v8.737H36V18.646c.821-.031 1.965-.254 3.081-.459v3.418C39.945 19.958 41.218 18 43.48 18c.204 0 .444.03.706.06l-.438 3.08zm29.321 11.889v-9.771c0-2.201-.792-2.847-2.14-2.847s-2.643 1-3.847 2.618v10H64V13.458c.85-.06 2.076-.196 3.081-.458v7.618c1.47-1.846 3.129-2.611 4.872-2.611 1.76 0 3.14.848 3.756 2.259.353.76.443 1.495.443 3.051v9.712h-3.084zM29 33.237V13.665c.998-.088 2.348-.307 3.347-.665v20.237H29zM46.847 14.67c-1.024 0-1.847-.825-1.847-1.82 0-1.03.823-1.851 1.847-1.851.999 0 1.82.821 1.82 1.85a1.83 1.83 0 0 1-1.82 1.82zM46 32.894V18.459l.292-.032c.91-.054 1.967-.206 2.788-.427v14.894H46zm38 .343V13.665c1-.088 2.291-.344 3.347-.665v17.978h6.066v2.259H84zm27.519-20.263c-.526-.089-1.036-.155-1.448-.155-1.91 0-2.52 1.057-2.52 4.225v.967h3.344l-.292 1.822h-3.052v12.762h-3.112V19.833H102l.295-1.822h2.144v-1.203c0-3.989 1.554-5.808 4.957-5.808.883 0 1.566.067 2.507.242l-.384 1.732zm-13.673 1.697c-1.023 0-1.846-.825-1.846-1.82 0-1.03.823-1.851 1.846-1.851 1 0 1.818.821 1.818 1.85 0 .996-.818 1.82-1.818 1.82zm20.521 4.088c-1.79 0-2.814 1.585-2.935 4.428h5.605c-.06-2.872-.998-4.428-2.67-4.428zm-2.935 6.25v.382c.12 3.377 1.412 4.873 4.17 4.873 1.2 0 2.11-.207 3.781-.88l.618 1.671c-1.995.996-3.343 1.35-5.284 1.35-4.373 0-6.688-2.728-6.688-7.864 0-4.696 2.347-7.454 6.338-7.454 3.961 0 6.017 2.7 6.048 7.922h-8.983zM96 32.894V18.459l.292-.032c1.11-.087 1.817-.25 2.785-.427v14.894H96zM1.648 6.344c-.113.2-.58.626-.828.729-.156.068-.513.211-.82.344V5.345a1.7 1.7 0 0 1 .323-.179l.078-.036c.243-.09.652-.12.805-.13l.077.014c.058.007.427.164.492.394.061.231-.013.736-.127.936zm-.24 3.757c-.122.078-.436.19-.58.23-.091.025-.49.11-.828.182V8.788l.286-.192.14-.097c.186-.14.679-.31.784-.332.1-.022.402-.139.539-.167l.11.009s.537.165.537.61c0 .443-.176.801-.176.801l-.03.064-.077.092-.61.468-.095.057zm6.567 13.236l.126 1.956.114 2.042-.973-.065L6 27.19l.107-2.372s.326-2.09.326-2.223c0-.114.16-1.01.208-1.25l.028-.064.05-.047.211-.143.202-.083L7.19 21l.052.003.244.067c.109.063.26.651.26.651l.23 1.616zm4.682 6.68l.133.055s.536.264.994.53v3.096H0V12.344l1.905-.423s.924-.185 1.189-.414c.263-.23.835-.507.835-.507l.034 1.936.02.129.356 1.365s.854 2.416.813 3.024c-.042.608-.177 3.026-.177 3.026s-.508 2.72-.517 3.025a79.462 79.462 0 0 1-.102 1.734l-.025.697v1.165s-.528.279-.769.317c-.242.037-1.733.805-1.97 1.021-.236.211-.623.308-.595.423.028.119.17.406.17.406s-.24.36-.061.508c.156.126 1.77.962 2.162 1.16l.108.037 1.644.426.193.02.219-.003c.316-.04 1.147-.142 1.71-.203.18-.02.333-.034.432-.04l.112-.015c.113.034 2.305-.838 2.672-.957.37-.116.962-.592.962-.592l1.337.407zM0 0h13.784v26.59c-.268.164-.539.308-.614.355-.164.103-1.61 1.053-1.61 1.053l-1.117-.329-.599-.17-.05-.446s-.129-2.96-.115-3.066c.014-.106-.398-3.147-.398-3.147l-.232-1.636.188-2.112.405-2.795.013-1.13-.034-1.776.096-1.029.442-1.221.1-.477-.025-.064c-.103-.083-.468-.323-.87-.18-.262.093-.566.24-.637.374-.07.133-.234 1.277-.234 1.277l-.12 1.587-.215 1.836-.108.634c-.05.19-.311.091-.311.091s-.06-.368-.047-.53c.014-.164.11-1.024.11-1.024l.004-.055c-.011-.118-.055-.562-.126-.81-.074-.24-.3-.332-.539-.358-.336-.037-.696.06-.696.06-.248.065-.35.217-.43.338-.053.077-.119.31-.115.5 0 0 .09 1.068.138 1.241l.176.599s.025.394-.311.186l-.04-.034-.36-.758-.021-.06-.017-.066-.154-1.013-.01-.088.005-.857c.026-.104.24-1.25.524-1.716l.332-.47c.096-.113.743-.883.98-1.265l.078-.156c.085-.267 1.188-.903 1.639-1.259.453-.356.797-.563.997-.622.2-.059.543-.193.674-.247.128-.056.382-.153.396-.188l-.121-.08-.868-.115s-.335-.058-.391-.162c-.058-.105-.57-.398-.69-.49-.12-.089-.63-.077-.857.022-.225.098-.683.205-.858.323l-.006.002c-.17.12-.637.416-.76.47-.121.054-.162.089-.162.089l-.117-.155.221-.416.352-.834s.17-.398.295-.963c.13-.563-.42-1.199-.84-1.468-.418-.271-1.83-.137-2.135-.094-.303.046-1.541.269-1.647.313a72.06 72.06 0 0 1-1.65.535c-.045.014-.379.139-.692.264V0z" />
</svg>
