<?xml version="1.0" encoding="UTF-8"?>
<svg width="25px" height="21px" viewBox="0 0 25 21" version="1.1" xmlns="http://www.w3.org/2000/svg" xmlns:xlink="http://www.w3.org/1999/xlink">
    <!-- Generator: Sketch 47.1 (45422) - http://www.bohemiancoding.com/sketch -->
    <title>Icons/Social/Twitter</title>
    <desc>Created with Sketch.</desc>
    <defs>
        <path d="M25,2.40613288 C24.081411,2.81400174 23.0909198,3.08982673 22.0549392,3.21453484 C23.1143981,2.57925707 23.9273346,1.57425645 24.3088572,0.377058628 C23.3183659,0.965387459 22.2207548,1.39086218 21.0512414,1.61973823 C20.1179785,0.623540532 18.7841169,0 17.3079181,0 C14.4773141,0 12.1808417,2.29903062 12.1808417,5.12917106 C12.1808417,5.53263846 12.2233961,5.92143433 12.3129072,6.2970258 C8.0501262,6.08282129 4.27158537,4.04347696 1.74032987,0.93751153 C1.29864413,1.69896456 1.04625227,2.57925707 1.04625227,3.51970291 C1.04625227,5.29642664 1.95163468,6.86774878 3.32805071,7.78765446 C2.48723367,7.76124568 1.69630804,7.52943532 1.00369783,7.14650808 L1.00369783,7.20959571 C1.00369783,9.69642207 2.7719082,11.7695109 5.11973939,12.2390003 C4.68832541,12.3593069 4.23636791,12.4194602 3.76680167,12.4194602 C3.43663791,12.4194602 3.11381112,12.3901172 2.80272348,12.3299638 C3.45424664,14.3649067 5.34865293,15.8496668 7.59376651,15.8892799 C5.8372953,17.2654706 3.6259318,18.0856097 1.22380701,18.0856097 C0.810001761,18.0856097 0.400598697,18.0621353 0,18.0151863 C2.27005928,19.4691362 4.96566297,20.3186184 7.8622997,20.3186184 C17.2976463,20.3186184 22.4555379,12.5045552 22.4555379,5.72483566 C22.4555379,5.50182823 22.4511358,5.28028794 22.440864,5.06168197 C23.4430944,4.3369078 24.3147268,3.43460797 25,2.40613288" id="path-1"></path>
    </defs>
    <g id="Symbols" stroke="none" stroke-width="1" fill="none" fill-rule="evenodd">
        <g id="Icons/Social/Group" transform="translate(0.000000, -5.000000)">
            <g id="Icons/Social/Twitter" transform="translate(0.000000, 3.000000)">
                <g id="Swatches/Dark-Blue" transform="translate(0.000000, 2.000000)">
                    <mask id="mask-2" fill="white">
                        <use xlink:href="#path-1"></use>
                    </mask>
                    <use id="Mask" fill="#351169" xlink:href="#path-1"></use>
                    <g mask="url(#mask-2)" id="Rectangle-2" fill="#04589B">
                        <g transform="translate(-2.000000, -4.000000)">
                            <rect x="0" y="0" width="30" height="30"></rect>
                        </g>
                    </g>
                </g>
            </g>
        </g>
    </g>
</svg>