<svg xmlns="http://www.w3.org/2000/svg" viewBox="20 20 200 60">
<rect fill="#fff" x="22.7" y="23" width="22.6" height="50"/><path fill="#5261ac" d="M25.4 31.83c.2-.32.3-1.1.2-1.47-.1-.36-.7-.6-.8-.6 0 0-.1-.04-.13-.04-.24 0-.92.06-1.32.2-.03 0-.1.05-.12.06-.14.04-.32.14-.54.28v3.24c.5-.22 1.1-.44 1.34-.55.4-.15 1.17-.83 1.36-1.14m-.4 6.5c.05-.04.17-.1.17-.1l1-.75.12-.15.04-.1s.3-.57.3-1.27-.88-.96-.88-.96-.1-.02-.18 0c-.24.05-.73.23-.9.27-.16.03-.98.3-1.28.52-.06.03-.23.15-.23.15l-.48.32v2.7c.55-.13 1.2-.25 1.35-.3.24-.06.76-.23.96-.35m10.63 20.56l-.37-2.53s-.26-.92-.43-1.03c-.12-.06-.3-.1-.4-.1h-.18l-.33.14-.34.24-.08.06s-.02.04-.04.1c-.08.38-.34 1.78-.34 1.97 0 .2-.53 3.48-.53 3.48l-.2 3.72 2.05.12 1.6.1-.18-3.2zM43.48 69.8l-2.2-.64s-.97.75-1.57.94c-.6.18-4.2 1.54-4.38 1.5-.02 0-.1 0-.2 0-.15.02-.4.03-.7.07-.94.1-2.3.25-2.82.3-.12 0-.36 0-.36 0l-.32-.02-2.7-.67s-.08-.02-.18-.06c-.64-.3-3.3-1.62-3.55-1.82-.3-.23.1-.8.1-.8s-.24-.45-.3-.64c-.04-.2.6-.33.98-.67.4-.34 2.84-1.55 3.24-1.6.4-.07 1.27-.5 1.27-.5v-1.8l.03-1.1s.16-2.23.17-2.7c.02-.5.86-4.75.86-4.75s.2-3.78.3-4.74c.06-.94-1.34-4.73-1.34-4.73l-.6-2.14-.02-.2-.05-3.05s-.95.45-1.38.8c-.43.36-1.95.66-1.95.66l-3.17.66v33.44H45.3V70.7c-.75-.4-1.63-.83-1.63-.83zM22.7 22.66v4.4c.52-.2 1.06-.4 1.13-.42.13-.04 2.53-.77 2.7-.84.17-.06 2.2-.4 2.7-.5.5-.06 2.8-.27 3.5.16.7.42 1.6 1.42 1.38 2.3-.2.88-.47 1.5-.47 1.5l-.58 1.32c-.08.12-.38.65-.38.65l.18.24s.07-.05.27-.13.97-.55 1.25-.74h.02c.28-.18 1.03-.34 1.4-.5.38-.16 1.22-.18 1.42-.03.2.15 1.04.6 1.13.76.1.16.64.25.64.25l1.4.18s.24.06.2.12c0 .05-.43.2-.64.3-.22.07-.78.28-1.1.38-.34.1-.92.4-1.66.97-.73.56-2.55 1.56-2.7 1.97 0 .07-.06.15-.1.24-.4.6-1.47 1.82-1.63 2l-.55.72c-.47.74-.8 2.52-.87 2.7v1.48l.26 1.58.03.1.04.1.6 1.2c.03 0 .04.03.05.04.56.32.52-.3.52-.3s-.18-.6-.3-.92c-.07-.27-.2-1.95-.2-1.95 0-.32.1-.68.17-.8.15-.18.32-.42.72-.53 0 0 .6-.15 1.15-.1.4.05.76.2.88.57.12.38.18 1.08.2 1.26v.1s-.15 1.34-.16 1.6c-.04.25.07.82.07.82s.42.15.5-.14c.03-.1.2-1 .2-1l.34-2.87.2-2.47s.28-1.8.4-2c.1-.2.6-.44 1.03-.6.65-.2 1.25.16 1.42.3.02.02.04.1.04.1l-.17.73-.72 1.92s-.14 1.5-.15 1.62c0 .12.05 2.78.05 2.78s-.06 1.66-.02 1.78l-.67 4.37-.3 3.3.38 2.57s.68 4.76.66 4.93c-.03.16.18 4.8.18 4.8l.08.7 1 .27 1.82.5s2.37-1.48 2.64-1.64c.12-.07.57-.3 1-.56V22.64z"/>
<path fill="#232021" d="M118.67 52.7c-.9-.26-3.24-.9-5.68-.9-6 0-8.38 3.44-8.36 6.44.1 8.02 10.22 5.78 10.27 11 .04 1.62-1.15 3.5-4.65 3.5-2.22 0-4.2-.56-4.9-.84l-.56 3.12c1.4.6 4.87.97 6.26.97 6.16 0 9-3.73 8.95-7.6-.08-8-10.32-6.57-10.36-10.73 0-1.56 1.25-2.6 3.92-2.6 2.36 0 3.9.52 4.48.65l.65-3.02m-26.8 3.95h-.8c-3 0-4.98 1.7-6.58 5.08v13.84h-4.9V52.7c1.3-.05 3.12-.4 4.9-.73v5.4c1.38-2.6 3.4-5.7 6.96-5.7.34 0 .7.05 1.12.1l-.7 4.9m46.58 18.92V60.1c0-3.5-1.26-4.5-3.4-4.5s-4.18 1.58-6.08 4.14v15.84h-4.88V44.56c1.35-.1 3.3-.3 4.88-.72V55.9c2.32-2.9 4.96-4.13 7.72-4.13 2.8 0 4.97 1.35 5.95 3.58.56 1.2.7 2.37.7 4.84v15.37h-4.9m-70.4 0v-31c1.6-.16 3.72-.5 5.3-1.06v32.07h-5.3M97.5 48.2c-1.63 0-2.93-1.32-2.93-2.9 0-1.62 1.3-2.93 2.93-2.93 1.6 0 2.9 1.3 2.9 2.94 0 1.58-1.3 2.9-2.9 2.9m-2.47 27.37V52.7l.46-.06c1.43-.1 3.1-.32 4.4-.68v23.6h-4.88m61.2 0v-31c1.58-.15 3.62-.55 5.3-1.05V72h9.62v3.57h-14.92m42.85-31.1c-.84-.14-1.64-.24-2.3-.24-3.03 0-4 1.68-4 6.7v1.53h5.32l-.5 2.9h-4.83v20.22h-4.93V55.35h-3.87l.46-2.88h3.4v-1.9c0-6.33 2.46-9.22 7.85-9.22 1.4 0 2.48.1 3.98.38l-.6 2.75m-21.87 3.7c-1.64 0-2.93-1.3-2.93-2.87 0-1.6 1.3-2.92 2.92-2.92 1.57 0 2.87 1.3 2.87 2.94 0 1.58-1.3 2.88-2.88 2.88m-2.47 27.4V52.7l.46-.05c1.75-.14 2.87-.4 4.4-.68v23.6h-4.88m34.92-21.15c-2.84 0-4.46 2.5-4.65 7.02h8.87c-.1-4.55-1.57-7.02-4.22-7.02m-4.65 9.9v.6c.2 5.36 2.24 7.73 6.6 7.73 1.92 0 3.36-.33 6-1.4l.98 2.65c-3.16 1.58-5.3 2.15-8.37 2.15-6.9 0-10.6-4.32-10.6-12.46 0-7.46 3.73-11.83 10.05-11.83 6.28 0 9.54 4.28 9.6 12.56z"/></svg>